<svg xmlns="http://www.w3.org/2000/svg" xmlns:xlink="http://www.w3.org/1999/xlink" width="1280" height="3072">

<style type="text/css"><![CDATA[
  .ct {
    text-anchor: middle;
    dominant-baseline: central;
  }
]]></style>

<path d="m24,24 m0,48 l1366,0" stroke="black" stroke-width="2" />

<path id="line-jr-hakodate" d="m24,24 m0,64
m256,224
l0,-64
l256,0" stroke="#ed1c23" fill="none" stroke-width="12" stroke-linecap="square" stroke-linejoin="round" stroke-opacity="0.15" />
<text class="ct" x="352" y="272" stroke="white" stroke-width="1.5" fill="none" font-size="24">函館本線</text>
<text class="ct" x="352" y="272" stroke="none" fill="#ed1c23" font-size="24">函館本線</text>

<path id="line-jr-hakodate2" d="m24,24 m0,64
m512,160
l64,0
l0,-128
l64,0" stroke="#f7931d" fill="none" stroke-width="12" stroke-linecap="square" stroke-linejoin="round" stroke-opacity="0.15" />
<text class="ct" x="512" y="176" stroke="white" stroke-width="1.5" fill="none" font-size="24">函館本線</text>
<text class="ct" x="512" y="176" stroke="none" fill="#f7931d" font-size="24">函館本線</text>

<path id="line-jr-hakodate3" d="m24,24 m0,64
m256,224
l0,96
l-32,32
l32,32
l0,64" stroke="#0072bc" fill="none" stroke-width="12" stroke-linecap="square" stroke-linejoin="round" stroke-opacity="0.15" />

<path id="line-jr-hakodate4" d="m24,24 m0,64
m256,256
l32,0
l0,64
l-32,0
l0,64" stroke="#0072bc" fill="none" stroke-width="12" stroke-linecap="square" stroke-linejoin="round" stroke-opacity="0.15" />
<text class="ct" x="384" y="400" stroke="none" fill="#0072bc" font-size="24">函館本線</text>

<circle cx="408" cy="248" r="5" stroke="none" fill="white" />
<text x="408" y="248" font-size="16" dy="-8" text-anchor="middle" dominant-baseline="central">手稲</text>

<circle cx="280" cy="248" r="5" stroke="none" fill="white" />
<text x="280" y="248" font-size="16" dy="-16" text-anchor="middle" dominant-baseline="central">小樽</text>

<circle cx="280" cy="280" r="5" stroke="none" fill="white" />
<text x="280" y="280" font-size="16" dx="-32" text-anchor="middle" dominant-baseline="central">倶知安</text>

<circle cx="280" cy="344" r="3" stroke="none" fill="white" />
<text x="280" y="344" font-size="16" dx="-16" text-anchor="middle" dominant-baseline="central">森</text>

<circle cx="280" cy="376" r="5" stroke="none" fill="white" />
<text x="280" y="376" font-size="16" dx="-40" text-anchor="middle" dominant-baseline="central">大沼公園</text>

<circle cx="312" cy="376" r="3" stroke="none" fill="white" />
<text x="312" y="376" font-size="16" dx="40" text-anchor="middle" dominant-baseline="central">流山温泉</text>

<circle cx="280" cy="408" r="3" stroke="none" fill="white" />
<text x="280" y="408" font-size="16" dx="-24" text-anchor="middle" dominant-baseline="central">大沼</text>

<circle cx="280" cy="472" r="3" stroke="none" fill="white" />
<text x="280" y="472" font-size="16" dx="-24" text-anchor="middle" dominant-baseline="central">七飯</text>

<path id="line-jr-sassho" d="m24,24 m0,64
m512,160
l-32,0
l0,-32
l-32,0" stroke="#00a54f" fill="none" stroke-width="12" stroke-linecap="square" stroke-linejoin="round" stroke-opacity="0.15" />

<path id="line-jr-sassho" d="m24,24 m0,64
m448,128
l-64,0" stroke="gray" fill="none" stroke-width="12" stroke-linecap="square" stroke-linejoin="round" stroke-opacity="0.15" />
<text class="ct" x="384" y="176" stroke="gray" stroke-width="0.5" fill="#00a54f" font-size="24">学園都市線</text>

<circle cx="504" cy="248" r="3" stroke="none" fill="white" />
<text x="504" y="248" font-size="16" dx="-24" text-anchor="middle" dominant-baseline="central">桑園</text>

<circle cx="472" cy="216" r="3" stroke="none" fill="white" />
<text x="472" y="216" font-size="16" dy="-16" text-anchor="middle" dominant-baseline="central">北海道医療大学</text>

<circle cx="408" cy="216" r="3" stroke="none" fill="white" />
<text x="408" y="216" font-size="16" dx="-40" text-anchor="middle" dominant-baseline="central">新十津川</text>

<path id="line-jr-chitose" d="m24,24 m0,64
m576,160
l320,0" stroke="#0072bc" fill="none" stroke-width="12" stroke-linecap="square" stroke-linejoin="round" stroke-opacity="0.15" />

<path id="line-jr-chitose2" d="m24,24 m0,64
m832,160
l-32,32" stroke="#00b2eb" fill="none" stroke-width="12" stroke-linecap="square" stroke-linejoin="round" stroke-opacity="0.15" />
<text class="ct" x="750" y="248" stroke="none" fill="#0072bc" font-size="24">千歳線</text>

<circle cx="856" cy="248" r="5" stroke="none" fill="white" />
<text x="856" y="248" font-size="16" dy="-8" text-anchor="middle" dominant-baseline="central">南千歳</text>

<circle cx="824" cy="280" r="5" stroke="none" fill="white" />
<text x="824" y="280" font-size="16" dx="-48" text-anchor="middle" dominant-baseline="central">新千歳空港</text>

<path id="line-jr-sekihoku" d="m24,24 m0,64
m640,32
l0,-32
l512,0" stroke="#f7931d" fill="none" stroke-width="12" stroke-linecap="square" stroke-linejoin="round" stroke-opacity="0.15" />
<text class="ct" x="896" y="88" stroke="white" stroke-width="1.5" fill="none" font-size="24">石北本線</text>
<text class="ct" x="896" y="88" stroke="none" fill="#f7931d" font-size="24">石北本線</text>

<circle cx="600" cy="248" r="3" stroke="none" fill="white" />
<text x="600" y="248" font-size="16" dy="16" text-anchor="middle" dominant-baseline="central">白石</text>
<!--
<circle cx="792" cy="88" r="5" stroke="none" fill="white" />
<text x="792" y="88" font-size="16" dy="16" text-anchor="middle" dominant-baseline="central">上川</text>

<circle cx="920" cy="88" r="5" stroke="none" fill="white" />
<text x="920" y="88" font-size="16" dy="16" text-anchor="middle" dominant-baseline="central">遠軽</text>

<circle cx="1048" cy="88" r="5" stroke="none" fill="white" />
<text x="1048" y="88" font-size="16" dy="16" text-anchor="middle" dominant-baseline="central">北見</text>
-->
<a xlink:href="http://ilovetrainhokkaido.web.fc2.com/bvehokkaido.htm" target="_blank">
<path id="line-jr-soya" d="m24,24 m0,64
m384,0
l128,0" stroke="#954a35" fill="none" stroke-width="12" stroke-linecap="square" stroke-linejoin="round" />
</a>

<path id="line-jr-soya2" d="m24,24 m0,64
m512,0
l128,0" stroke="#954a35" fill="none" stroke-width="12" stroke-linecap="square" stroke-linejoin="round" stroke-opacity="0.15" />
<text class="ct" x="384" y="144" stroke="white" stroke-width="1.5" fill="none" font-size="24">宗谷本線</text>
<text class="ct" x="384" y="144" stroke="none" fill="#954a35" font-size="24">宗谷本線</text>

<circle cx="408" cy="88" r="5" stroke="none" fill="white" />
<text x="408" y="88" font-size="16" dx="-24" text-anchor="middle" dominant-baseline="central">稚内</text>

<circle cx="536" cy="88" r="5" stroke="none" fill="white" />
<text x="536" y="88" font-size="16" dy="16" text-anchor="middle" dominant-baseline="central">名寄</text>

<circle cx="664" cy="88" r="3" stroke="none" fill="white" />
<text x="664" y="88" font-size="16" dx="32" text-anchor="middle" dominant-baseline="central">新旭川</text>

<path id="line-jr-furano" d="m24,24 m0,64
m640,32
l128,0
l0,32" stroke="#aa5ea6" fill="none" stroke-width="12" stroke-linecap="square" stroke-linejoin="round" stroke-opacity="0.15" />
<text class="ct" x="736" y="120" stroke="white" stroke-width="1.5" fill="none" font-size="24">富良野線</text>
<text class="ct" x="736" y="120" stroke="none" fill="#aa5ea6" font-size="24">富良野線</text>

<circle cx="664" cy="120" r="5" stroke="none" fill="white" />
<text x="664" y="120" font-size="16" dy="16" text-anchor="middle" dominant-baseline="central">旭川</text>
<!--
<circle cx="728" cy="120" r="5" stroke="none" fill="white" />
<text x="728" y="120" font-size="16" dy="16" text-anchor="middle" dominant-baseline="central">美瑛</text>

<circle cx="792" cy="120" r="5" stroke="none" fill="white" />
<text x="792" y="120" font-size="16" dx="70" text-anchor="middle" dominant-baseline="central">（臨）ラベンダー畑</text>
-->
<path id="line-jr-rumoi" d="m24,24 m0,64
m576,32
l-128,0" stroke="gray" fill="none" stroke-width="12" stroke-linecap="square" stroke-linejoin="round" stroke-opacity="0.15" />
<text class="ct" x="512" y="144" stroke="white" stroke-width="1.5" fill="none" font-size="24" dy="0">留萌本線</text>
<text class="ct" x="512" y="144" stroke="none" fill="gray" font-size="24" dy="0">留萌本線</text>

<circle cx="600" cy="120" r="5" stroke="none" fill="white" />
<text x="600" y="120" font-size="16" dy="-16" text-anchor="middle" dominant-baseline="central">深川</text>

<circle cx="472" cy="120" r="3" stroke="none" fill="white" />
<text x="472" y="120" font-size="16" dx="-24" text-anchor="middle" dominant-baseline="central">留萌</text>

<path id="line-jr-nemuro" d="m24,24 m0,64
m576,64
l256,0" stroke="#f6989d" fill="none" stroke-width="12" stroke-linecap="square" stroke-linejoin="round" stroke-opacity="0.15" />
<text class="ct" x="700" y="176" stroke="white" stroke-width="1.5" fill="none" font-size="24">根室本線</text>
<text class="ct" x="700" y="176" stroke="none" fill="#f6989d" font-size="24">根室本線</text>

<path id="line-jr-nemuro2" d="m24,24 m0,64
m832,64
l64,0" stroke="#8cc63e" fill="none" stroke-width="12" stroke-linecap="square" stroke-linejoin="round" stroke-opacity="0.15" />

<a xlink:href="http://ilovetrainhokkaido.web.fc2.com/bvehokkaido.htm" target="_blank">
<path id="line-jr-nemuro3" d="m24,24 m0,64
m896,64
l128,0" stroke="#8cc63e" fill="none" stroke-width="12" stroke-linecap="square" stroke-linejoin="round" />
</a>
<text class="ct" x="984" y="176" stroke="white" stroke-width="1.5" fill="none" font-size="24">根室本線</text>
<text class="ct" x="984" y="176" stroke="none" fill="#8cc63e" font-size="24">根室本線</text>

<circle cx="600" cy="152" r="5" stroke="none" fill="white" />
<text x="600" y="152" font-size="16" dx="-24" text-anchor="middle" dominant-baseline="central">滝川</text>

<circle cx="792" cy="152" r="5" stroke="none" fill="white" />
<text x="792" y="152" font-size="16" dx="-32" text-anchor="middle" dominant-baseline="central">富良野</text>

<circle cx="920" cy="152" r="5" stroke="none" fill="white" />
<text x="920" y="152" font-size="16" dy="-16" text-anchor="middle" dominant-baseline="central">帯広</text>

<circle cx="984" cy="152" r="5" stroke="none" fill="white" />
<text x="984" y="152" font-size="16" dy="-16" text-anchor="middle" dominant-baseline="central">池田</text>

<path id="line-jr-nemuro3" d="m24,24 m0,64
m1024,64
l128,0" stroke="gray" fill="none" stroke-width="12" stroke-linecap="square" stroke-linejoin="round" stroke-opacity="0.15" />
<text class="ct" x="1184" y="192" stroke="white" stroke-width="1.5" fill="none" font-size="24">花咲線</text>
<text class="ct" x="1184" y="192" stroke="none" fill="gray" font-size="24">花咲線</text>

<circle cx="1176" cy="152" r="3" stroke="none" fill="white" />
<text x="1176" y="152" font-size="16" dx="24" text-anchor="middle" dominant-baseline="central">根室</text>

<a xlink:href="http://ilovetrainhokkaido.web.fc2.com/bvehokkaido.htm" target="_blank">
<path id="line-jr-semmo" d="m24,24 m0,64
m1024,64
l16,0
l0,-32
l112,0
l0,-32" stroke="#ef59a1" fill="none" stroke-width="12" stroke-linecap="square" stroke-linejoin="round" />
<text class="ct" x="1000" y="112" stroke="white" stroke-width="1.5" fill="none" font-size="24">釧網本線</text>
<text class="ct" x="1000" y="112" stroke="none" fill="#ef59a1" font-size="24">釧網本線</text>
</a>

<circle cx="1048" cy="152" r="5" stroke="none" fill="white" />
<text x="1048" y="152" font-size="16" dx="-8" dy="-16" text-anchor="middle" dominant-baseline="central">釧路</text>

<circle cx="1064" cy="152" r="3" stroke="none" fill="white" />
<text x="1064" y="152" font-size="16" dx="16" dy="16" text-anchor="middle" dominant-baseline="central">東釧路</text>
<!--
<circle cx="1064" cy="120" r="5" stroke="none" fill="white" />
<text x="1064" y="120" font-size="16" dy="8" text-anchor="middle" dominant-baseline="central">釧路湿原</text>

<circle cx="1096" cy="120" r="5" stroke="none" fill="white" />
<text x="1096" y="120" font-size="16" dy="-8" text-anchor="middle" dominant-baseline="central">摩周</text>

<circle cx="1144" cy="120" r="5" stroke="none" fill="white" />
<text x="1144" y="120" font-size="16" dy="8" text-anchor="middle" dominant-baseline="central">知床斜里</text>

<circle cx="1176" cy="120" r="5" stroke="none" fill="white" />
<text x="1176" y="120" font-size="16" dx="8" dy="-8" text-anchor="middle" dominant-baseline="central">（臨）原生花園</text>
-->
<circle cx="1176" cy="88" r="5" stroke="none" fill="white" />
<text x="1176" y="88" font-size="16" dx="24" text-anchor="middle" dominant-baseline="central">網走</text>

<path id="line-jr-sekisho" d="m24,24 m0,64
m832,160
l0,-96" stroke="#8cc63e" fill="none" stroke-width="12" stroke-linecap="square" stroke-linejoin="round" stroke-opacity="0.15" />

<path id="line-jr-sekisho" d="m24,24 m0,64
m832,96
l-64,0" stroke="#8cc63e" fill="none" stroke-width="12" stroke-linecap="square" stroke-linejoin="round" stroke-opacity="0.15" />
<text class="ct" x="784" y="208" stroke="none" fill="#8cc63e" font-size="24">石勝線</text>

<circle cx="856" cy="184" r="3" stroke="none" fill="white" />
<text x="856" y="184" font-size="16" dx="24" text-anchor="middle" dominant-baseline="central">夕張</text>

<circle cx="792" cy="184" r="3" stroke="none" fill="white" />
<text x="792" y="184" font-size="16" dx="-32" text-anchor="middle" dominant-baseline="central">新夕張</text>
<!--
<circle cx="856" cy="168" r="5" stroke="none" fill="white" />
<text x="856" y="168" font-size="16" dx="-32" text-anchor="middle" dominant-baseline="central">トマム</text>
-->
<circle cx="856" cy="152" r="5" stroke="none" fill="white" />
<text x="856" y="152" font-size="16" dy="-16" text-anchor="middle" dominant-baseline="central">新得</text>

<path id="line-jr-muroran" d="m24,24 m0,64
m576,128
l320,0
l0,32" stroke="gray" fill="none" stroke-width="12" stroke-linecap="square" stroke-linejoin="round" stroke-opacity="0.15" />
<text class="ct" x="672" y="216" stroke="none" fill="gray" font-size="24">室蘭本線</text>

<path id="line-jr-muroran" d="m24,24 m0,64
m896,160
l0,64
l-640,0" stroke="#0072bc" fill="none" stroke-width="12" stroke-linecap="square" stroke-linejoin="round" stroke-opacity="0.15" />

<path id="line-jr-muroran" d="m24,24 m0,64
m640,224
l0,32" stroke="#0072bc" fill="none" stroke-width="12" stroke-linecap="square" stroke-linejoin="round" stroke-opacity="0.15" />
<text class="ct" x="544" y="344" stroke="none" fill="#0072bc" font-size="24">室蘭本線</text>

<circle cx="600" cy="216" r="5" stroke="none" fill="white" />
<text x="600" y="216" font-size="16" dx="-32" text-anchor="middle" dominant-baseline="central">岩見沢</text>

<circle cx="856" cy="216" r="3" stroke="none" fill="white" />
<text x="856" y="216" font-size="16" dx="24" text-anchor="middle" dominant-baseline="central">追分</text>

<circle cx="920" cy="248" r="3" stroke="none" fill="white" />
<text x="920" y="248" font-size="16" dx="32" text-anchor="middle" dominant-baseline="central">沼ノ端</text>

<circle cx="920" cy="312" r="5" stroke="none" fill="white" />
<text x="920" y="312" font-size="16" dy="16" text-anchor="middle" dominant-baseline="central">白老</text>

<circle cx="792" cy="312" r="5" stroke="none" fill="white" />
<text x="792" y="312" font-size="16" dy="16" text-anchor="middle" dominant-baseline="central">登別</text>

<circle cx="664" cy="312" r="5" stroke="none" fill="white" />
<text x="664" y="312" font-size="16" dy="-16" text-anchor="middle" dominant-baseline="central">東室蘭</text>

<circle cx="664" cy="344" r="3" stroke="none" fill="white" />
<text x="664" y="344" font-size="16" dy="16" text-anchor="middle" dominant-baseline="central">室蘭</text>

<circle cx="408" cy="312" r="5" stroke="none" fill="white" />
<text x="408" y="312" font-size="16" dy="16" text-anchor="middle" dominant-baseline="central">洞爺</text>

<circle cx="280" cy="312" r="5" stroke="none" fill="white" />
<text x="280" y="312" font-size="16" dx="-32" text-anchor="middle" dominant-baseline="central">長万部</text>

<path id="line-jr-hidaka" d="m24,24 m0,64
m896,192
l128,0" stroke="gray" fill="none" stroke-width="12" stroke-linecap="square" stroke-linejoin="round" stroke-opacity="0.15" />
<text class="ct" x="984" y="300" stroke="none" fill="gray" font-size="24">日高本線</text>

<circle cx="920" cy="280" r="5" stroke="none" fill="white" />
<text x="920" y="280" font-size="16" dx="-32" text-anchor="middle" dominant-baseline="central">苫小牧</text>

<circle cx="1048" cy="280" r="5" stroke="none" fill="white" />
<text x="1048" y="280" font-size="16" dx="24" text-anchor="middle" dominant-baseline="central">様似</text>

<path id="line-st-namboku" d="m24,24 m0,64
m504,128
l0,80" stroke="#008000" fill="none" stroke-width="6" stroke-linecap="square" stroke-linejoin="round" stroke-opacity="0.15" />
<text class="ct" x="448" y="264" stroke="none" fill="#008000" font-size="16">地下鉄南北線</text>

<path id="line-st-tozai" d="m24,24 m0,64
m464,176
l176,0
l0,-16" stroke="#ffa500" fill="none" stroke-width="6" stroke-linecap="square" stroke-linejoin="round" stroke-opacity="0.15" />
<text class="ct" x="608" y="280" stroke="none" fill="#ffa500" font-size="16">地下鉄東西線</text>

<circle cx="664" cy="248" r="5" stroke="none" fill="white" />
<text x="664" y="248" font-size="16" dy="-8" text-anchor="middle" dominant-baseline="central">新札幌</text>

<path id="line-st-toho" d="m24,24 m0,64
m520,128
l0,32
l0,48" stroke="#0080ff" fill="none" stroke-width="6" stroke-linecap="square" stroke-linejoin="round" stroke-opacity="0.15" />
<text class="ct" x="448" y="296" stroke="none" fill="#0080ff" font-size="16">地下鉄東豊線</text>

<circle cx="528" cy="248" r="2" stroke="none" fill="white" />
<circle cx="536" cy="248" r="5" stroke="none" fill="white" />
<circle cx="544" cy="248" r="2" stroke="none" fill="white" />
<text x="536" y="248" font-size="16" dx="16" dy="-8" text-anchor="middle" dominant-baseline="central">札幌</text>

<circle cx="528" cy="264" r="2" stroke="none" fill="white" />
<circle cx="536" cy="264" r="2" stroke="none" fill="white" />
<circle cx="544" cy="264" r="2" stroke="none" fill="white" />

<path id="line-sapporo-shiden" d="m24,24 m0,64
m496,184
l-16,0
l0,16
l8,0
l0,-8
l8,0
l0,-8" stroke="gray" fill="none" stroke-width="6" stroke-linecap="square" stroke-linejoin="round" stroke-opacity="0.15" />
<text class="ct" x="448" y="280" stroke="none" fill="gray" font-size="16">札幌市電</text>

<path id="line-south-hokkaido" d="m24,24 m0,64
m192,416
l56,0
l0,32" stroke="#246dac" fill="none" stroke-width="6" stroke-linecap="square" stroke-linejoin="round" stroke-opacity="0.15" />
<text class="ct" x="128" y="464" stroke="white" stroke-width="1.5" fill="none" font-size="24">道南いさりび鉄道</text>
<text class="ct" x="128" y="464" stroke="none" fill="#246dac" font-size="24">道南いさりび鉄道</text>

<circle cx="272" cy="504" r="2" stroke="none" fill="white" />
<circle cx="280" cy="504" r="5" stroke="none" fill="white" />
<text x="280" y="504" font-size="16" dx="32" text-anchor="middle" dominant-baseline="central">五稜郭</text>

<path id="line-hct-2" d="m24,24 m0,64
m288,432
l-16,0
l0,48" stroke="red" fill="none" stroke-width="6" stroke-linecap="square" stroke-linejoin="round" stroke-opacity="0.15" />

<path id="line-hct-5" d="m24,24 m0,64
m288,424
l-24,0
l0,40
l-16,0" stroke="#246dac" fill="none" stroke-width="6" stroke-linecap="square" stroke-linejoin="round" stroke-opacity="0.15" />
<text class="ct" x="384" y="544" stroke="red" stroke-width="0.5" fill="none" font-size="24">函館市電</text>
<text class="ct" x="384" y="544" stroke="none" fill="#246dac" font-size="24">函館市電</text>

<circle cx="272" cy="536" r="2" stroke="none" fill="white" />
<circle cx="280" cy="536" r="5" stroke="none" fill="white" />
<circle cx="288" cy="536" r="2" stroke="none" fill="white" />
<circle cx="296" cy="536" r="2" stroke="none" fill="white" />
<text x="280" y="536" font-size="16" dx="40" text-anchor="middle" dominant-baseline="central">函館</text>

<path id="line-hokkaido-shinkansen" d="m24,24 m0,64
m192,544
m0.001,0.001
l-0.001,-0.001
l0,-176
l16,-16
l16,0" stroke="#a757a8" fill="none" stroke-width="12" stroke-linecap="square" stroke-linejoin="round" stroke-opacity="0.15" />
<text class="ct" x="128" y="352" stroke="white" stroke-width="1.5" fill="none" font-size="24">北海道新幹線</text>
<text class="ct" x="128" y="352" stroke="none" fill="#a757a8" font-size="24">北海道新幹線</text>

<circle cx="248" cy="440" r="5" stroke="none" fill="white" />
<text x="248" y="440" font-size="16" dx="-48" dy="-16" text-anchor="middle" dominant-baseline="central">新函館北斗</text>

<path id="line-jr-tsugarukaikyo" d="m24,24 m0,64
m208,512
l-16,-16
l0,-32
l-16,-16
l0,-16
l16,-16
l0.001,0" stroke="#00b2e5" fill="none" stroke-width="12" stroke-linecap="square" stroke-linejoin="round" stroke-opacity="0.15" />
<text class="ct" x="384" y="608" stroke="white" stroke-width="1.5" fill="none" font-size="24">海峡線</text>
<text class="ct" x="384" y="608" stroke="none" fill="#00b2e5" font-size="24">海峡線</text>

<circle cx="216" cy="568" r="5" stroke="none" fill="white" />
<text x="216" y="568" font-size="16" dx="64" text-anchor="middle" dominant-baseline="central">奥津軽いまべつ</text>

<circle cx="216" cy="504" r="5" stroke="none" fill="white" />
<text x="216" y="504" font-size="16" dx="-32" text-anchor="middle" dominant-baseline="central">木古内</text>

<path id="line-jr-tsugarukaikyo" d="m24,24 m0,64
m240,576
l-16,-16
l0,-32
l-16,-16
l-16,0
l-16,-16
l0,-32
l-32,-32" stroke="#00b2e5" fill="none" stroke-width="12" stroke-linecap="square" stroke-linejoin="round" stroke-opacity="0.15" />
<text class="ct" x="384" y="640" stroke="white" stroke-width="1.5" fill="none" font-size="24">津軽線</text>
<text class="ct" x="384" y="640" stroke="none" fill="#00b2e5" font-size="24">津軽線</text>

<circle cx="168" cy="520" r="5" stroke="none" fill="white" />
<text x="168" y="520" font-size="16" dx="-24" text-anchor="middle" dominant-baseline="central">三厩</text>

<circle cx="200" cy="552" r="5" stroke="none" fill="white" />
<text x="200" y="552" font-size="16" dx="40" dy="-8" text-anchor="middle" dominant-baseline="central">津軽二股</text>

<circle cx="232" cy="600" r="5" stroke="none" fill="white" />
<text x="232" y="600" font-size="16" dx="32" text-anchor="middle" dominant-baseline="central">中小国</text>

<circle cx="248" cy="632" r="5" stroke="none" fill="white" />
<text x="248" y="632" font-size="16" dx="24" text-anchor="middle" dominant-baseline="central">蟹田</text>

<path id="line-jr-ou" d="m24,24 m0,64
m240,576
l-32,-32
l-112,0
l0,96
l-64,0
l0,64" stroke="#ff6600" fill="none" stroke-width="12" stroke-linecap="square" stroke-linejoin="round" stroke-opacity="0.15" />
<text class="ct" x="384" y="704" stroke="white" stroke-width="1.5" fill="none" font-size="24">奥羽本線</text>
<text class="ct" x="384" y="704" stroke="none" fill="#ff6600" font-size="24">奥羽本線</text>

<circle cx="264" cy="664" r="5" stroke="none" fill="white" />
<text x="264" y="664" font-size="16" dx="24" text-anchor="middle" dominant-baseline="central">青森</text>
<!--
<circle cx="184" cy="632" r="5" stroke="none" fill="white" />
<text x="184" y="632" font-size="16" dy="-16" text-anchor="middle" dominant-baseline="central">津軽新城</text>
-->
<circle cx="152" cy="632" r="5" stroke="none" fill="white" />
<text x="152" y="632" font-size="16" dy="-16" text-anchor="middle" dominant-baseline="central">浪岡</text>

<circle cx="120" cy="696" r="3" stroke="none" fill="white" />
<text x="120" y="696" font-size="16" dx="40" text-anchor="middle" dominant-baseline="central">大鰐温泉</text>

<circle cx="120" cy="728" r="5" stroke="none" fill="white" />
<text x="120" y="728" font-size="16" dx="16" dy="16" text-anchor="middle" dominant-baseline="central">大館</text>

<circle cx="88" cy="728" r="3" stroke="none" fill="white" />
<text x="88" y="728" font-size="16" dy="-16" text-anchor="middle" dominant-baseline="central">鷹ノ巣</text>
<!--
<circle cx="72" cy="728" r="5" stroke="none" fill="white" />
<text x="72" y="728" font-size="16" dy="-16" text-anchor="middle" dominant-baseline="central">二ツ井</text>
-->

<path id="line-jr-gono" d="m24,24 m0,64
m80,576
l0,-112
l-48,0
l0,176" stroke="#33f" fill="none" stroke-width="12" stroke-linecap="square" stroke-linejoin="round" stroke-opacity="0.15" />
<text class="ct" x="40" y="512" stroke="white" stroke-width="1.5" fill="none" font-size="24">五能線</text>
<text class="ct" x="40" y="512" stroke="none" fill="#33f" font-size="24">五能線</text>

<circle cx="104" cy="664" r="5" stroke="none" fill="white" />
<circle cx="120" cy="664" r="5" stroke="none" fill="white" />
<text x="104" y="664" font-size="16" dx="-24" text-anchor="middle" dominant-baseline="central">弘前</text>

<circle cx="104" cy="632" r="5" stroke="none" fill="white" />
<circle cx="120" cy="632" r="5" stroke="none" fill="white" />
<text x="104" y="632" font-size="16" dx="-24" text-anchor="middle" dominant-baseline="central">川部</text>
<!--
<circle cx="104" cy="584" r="5" stroke="none" fill="white" />
<text x="104" y="584" font-size="16" dx="24" text-anchor="middle" dominant-baseline="central">板柳</text>
-->
<circle cx="104" cy="552" r="5" stroke="none" fill="white" />
<text x="104" y="552" font-size="16" dx="40" text-anchor="middle" dominant-baseline="central">五所川原</text>
<!--
<circle cx="88" cy="552" r="5" stroke="none" fill="white" />
<text x="88" y="552" font-size="16" dx="8" dy="16" text-anchor="middle" dominant-baseline="central">鰺ヶ沢</text>
-->
<circle cx="56" cy="552" r="5" stroke="none" fill="white" />
<text x="56" y="552" font-size="16" dx="-24" text-anchor="middle" dominant-baseline="central">深浦</text>

<circle cx="56" cy="728" r="5" stroke="none" fill="white" />
<text x="56" y="728" font-size="16" dx="32" dy="16" text-anchor="middle" dominant-baseline="central">東能代</text>

<path id="line-tohoku-shinkansen" d="m24,24 m0,64
m192,544
m0,-0.001
l0,0.001
l32,32
l0,1376" stroke="#008000" fill="none" stroke-width="12" stroke-linecap="square" stroke-linejoin="round" stroke-opacity="0.15" />
<text class="ct" x="384" y="672" stroke="white" stroke-width="1.5" fill="none" font-size="24">東北新幹線</text>
<text class="ct" x="384" y="672" stroke="none" fill="#008000" font-size="24">東北新幹線</text>

<circle cx="184" cy="632" r="5" stroke="none" fill="white" />
<text x="184" y="632" font-size="16" dy="16" text-anchor="middle" dominant-baseline="central">新青森</text>

<circle cx="248" cy="696" r="5" stroke="none" fill="white" />
<text x="248" y="696" font-size="16" dx="48" text-anchor="middle" dominant-baseline="central">七戸十和田</text>

<circle cx="248" cy="760" r="5" stroke="none" fill="white" />
<text x="248" y="760" font-size="16" dx="24" text-anchor="middle" dominant-baseline="central">八戸</text>

<circle cx="248" cy="824" r="5" stroke="none" fill="white" />
<text x="248" y="824" font-size="16" dx="24" text-anchor="middle" dominant-baseline="central">二戸</text>

<circle cx="248" cy="888" r="5" stroke="none" fill="white" />
<text x="248" y="888" font-size="16" dx="56" text-anchor="middle" dominant-baseline="central">いわて沼宮内</text>

<circle cx="248" cy="952" r="5" stroke="none" fill="white" />
<text x="248" y="952" font-size="16" dx="24" text-anchor="middle" dominant-baseline="central">盛岡</text>

<circle cx="248" cy="1016" r="5" stroke="none" fill="white" />
<text x="248" y="1016" font-size="16" dx="32" text-anchor="middle" dominant-baseline="central">新花巻</text>

<circle cx="248" cy="1080" r="5" stroke="none" fill="white" />
<text x="248" y="1080" font-size="16" dx="24" text-anchor="middle" dominant-baseline="central">北上</text>

<circle cx="248" cy="1144" r="5" stroke="none" fill="white" />
<text x="248" y="1144" font-size="16" dx="40" text-anchor="middle" dominant-baseline="central">水沢江刺</text>

<circle cx="248" cy="1208" r="5" stroke="none" fill="white" />
<text x="248" y="1208" font-size="16" dx="32" text-anchor="middle" dominant-baseline="central">一ノ関</text>

<circle cx="248" cy="1272" r="5" stroke="none" fill="white" />
<text x="248" y="1272" font-size="16" dx="56" text-anchor="middle" dominant-baseline="central">くりこま高原</text>

<circle cx="248" cy="1336" r="5" stroke="none" fill="white" />
<text x="248" y="1336" font-size="16" dx="24" text-anchor="middle" dominant-baseline="central">古川</text>

<circle cx="248" cy="1400" r="5" stroke="none" fill="white" />
<text x="248" y="1400" font-size="16" dx="24" text-anchor="middle" dominant-baseline="central">仙台</text>

<circle cx="248" cy="1464" r="5" stroke="none" fill="white" />
<text x="248" y="1464" font-size="16" dx="40" text-anchor="middle" dominant-baseline="central">白石蔵王</text>

<circle cx="248" cy="1528" r="5" stroke="none" fill="white" />
<text x="248" y="1528" font-size="16" dx="24" text-anchor="middle" dominant-baseline="central">福島</text>

<circle cx="248" cy="1592" r="5" stroke="none" fill="white" />
<text x="248" y="1592" font-size="16" dx="24" text-anchor="middle" dominant-baseline="central">郡山</text>

<circle cx="248" cy="1656" r="5" stroke="none" fill="white" />
<text x="248" y="1656" font-size="16" dx="32" text-anchor="middle" dominant-baseline="central">新白河</text>

<circle cx="248" cy="1720" r="5" stroke="none" fill="white" />
<text x="248" y="1720" font-size="16" dx="40" text-anchor="middle" dominant-baseline="central">那須塩原</text>

<circle cx="248" cy="1784" r="5" stroke="none" fill="white" />
<text x="248" y="1784" font-size="16" dx="32" text-anchor="middle" dominant-baseline="central">宇都宮</text>

<circle cx="248" cy="1848" r="5" stroke="none" fill="white" />
<text x="248" y="1848" font-size="16" dx="24" text-anchor="middle" dominant-baseline="central">小山</text>

<circle cx="248" cy="1912" r="5" stroke="none" fill="white" />
<text x="248" y="1912" font-size="16" dx="24" text-anchor="middle" dominant-baseline="central">大宮</text>

<circle cx="248" cy="1976" r="5" stroke="none" fill="white" />
<text x="248" y="1976" font-size="16" dx="24" text-anchor="middle" dominant-baseline="central">上野</text>

<circle cx="248" cy="2040" r="5" stroke="none" fill="white" />
<text x="248" y="2040" font-size="16" dx="24" text-anchor="middle" dominant-baseline="central">東京</text>

<text x="4" y="28" font-size="32" text-anchor="start" dominant-baseline="central">BVE5路線データ図</text>
<a xlink:href="../index.html" target="_blank">
<text x="356" y="20" font-size="20" text-anchor="start" dominant-baseline="central">トップへ戻る</text>
</a>
<text x="420" y="48" font-size="16" text-anchor="start" dominant-baseline="central">色が濃い区間をクリックすると路線データの配布ページに飛びます。</text>

<text x="50%" y="50%" font-size="128" text-anchor="middle" dominant-baseline="central">制作中</text>
</svg>